<svg xmlns="http://www.w3.org/2000/svg" viewBox="0 0 320 200" role="img" aria-label="Limites de vitesse : 50 en agglomération, 90 sur route, 110 sur autoroute"><rect width="320" height="200" rx="14" fill="#E9F0E6"/><rect x="0" y="150" width="320" height="50" fill="#6B7886"/><g fill="#fff"><rect x="10" y="173" width="22" height="4" rx="2"/><rect x="52" y="173" width="22" height="4" rx="2"/><rect x="94" y="173" width="22" height="4" rx="2"/><rect x="136" y="173" width="22" height="4" rx="2"/><rect x="178" y="173" width="22" height="4" rx="2"/><rect x="220" y="173" width="22" height="4" rx="2"/><rect x="262" y="173" width="22" height="4" rx="2"/></g><path d="M106 20v130M213 20v130" stroke="#fff" stroke-width="3" stroke-dasharray="6 6"/><g fill="#8DA2B8"><rect x="14" y="88" width="24" height="62"/><rect x="42" y="70" width="28" height="80"/><rect x="74" y="98" width="22" height="52"/></g><g fill="#E9F0E6"><rect x="20" y="96" width="6" height="8"/><rect x="48" y="80" width="6" height="8"/><rect x="58" y="80" width="6" height="8"/><rect x="48" y="96" width="6" height="8"/><rect x="58" y="96" width="6" height="8"/><rect x="80" y="106" width="6" height="8"/></g><g transform="translate(160 118)"><rect x="-3" y="0" width="6" height="32" fill="#5A6878"/><circle cy="-14" r="20" fill="#3E8E5A"/><circle cx="-14" cy="-2" r="12" fill="#3E8E5A"/><circle cx="14" cy="-2" r="12" fill="#3E8E5A"/></g><g transform="translate(266 120)" fill="none" stroke-width="5"><path d="M-30 30l12-46h36l12 46" stroke="#1F5FA8"/><path d="M0 -10v8M0 6v8M0 22v8" stroke="#fff"/></g><g font-family="Arial,Helvetica,sans-serif" font-weight="700" text-anchor="middle"><g transform="translate(53 40)"><circle r="25" fill="#fff" stroke="#C2382B" stroke-width="6"/><text y="8" font-size="22" fill="#0E2238">50</text></g><g transform="translate(160 40)"><circle r="25" fill="#fff" stroke="#C2382B" stroke-width="6"/><text y="8" font-size="22" fill="#0E2238">90</text></g><g transform="translate(266 40)"><circle r="25" fill="#fff" stroke="#C2382B" stroke-width="6"/><text y="7" font-size="19" fill="#0E2238">110</text></g></g></svg>
