<svg xmlns="http://www.w3.org/2000/svg" viewBox="0 0 320 200"><defs><g id="v-orange"><rect x="-14" y="-15" width="3" height="9" rx="1.5" fill="#0E2238"/><rect x="11" y="-15" width="3" height="9" rx="1.5" fill="#0E2238"/><rect x="-14" y="6" width="3" height="9" rx="1.5" fill="#0E2238"/><rect x="11" y="6" width="3" height="9" rx="1.5" fill="#0E2238"/><rect x="-11" y="-19" width="22" height="38" rx="6" fill="#E8731A" stroke="#fff" stroke-width="1.5"/><rect x="-8" y="-12" width="16" height="9" rx="2" fill="#FDE3CC"/><rect x="-8" y="9" width="16" height="5" rx="2" fill="#FDE3CC"/><rect x="-7" y="-3" width="14" height="12" rx="2" fill="#E8731A" stroke="#0E2238" stroke-opacity=".25" stroke-width="1"/><circle cx="-6.5" cy="-17.5" r="2" fill="#FFF6C2"/><circle cx="6.5" cy="-17.5" r="2" fill="#FFF6C2"/></g><g id="v-bleu"><rect x="-14" y="-15" width="3" height="9" rx="1.5" fill="#0E2238"/><rect x="11" y="-15" width="3" height="9" rx="1.5" fill="#0E2238"/><rect x="-14" y="6" width="3" height="9" rx="1.5" fill="#0E2238"/><rect x="11" y="6" width="3" height="9" rx="1.5" fill="#0E2238"/><rect x="-11" y="-19" width="22" height="38" rx="6" fill="#1F5FA8" stroke="#fff" stroke-width="1.5"/><rect x="-8" y="-12" width="16" height="9" rx="2" fill="#CFE0F5"/><rect x="-8" y="9" width="16" height="5" rx="2" fill="#CFE0F5"/><rect x="-7" y="-3" width="14" height="12" rx="2" fill="#1F5FA8" stroke="#0E2238" stroke-opacity=".25" stroke-width="1"/><circle cx="-6.5" cy="-17.5" r="2" fill="#FFF6C2"/><circle cx="6.5" cy="-17.5" r="2" fill="#FFF6C2"/></g></defs><rect width="320" height="200" rx="14" fill="#E9F0E6"/><rect x="0" y="60" width="320" height="80" fill="#6B7886"/><use href="#v-orange" transform="translate(100 100) rotate(80) scale(1.18)"/><use href="#v-bleu" transform="translate(140 108) rotate(-60) scale(1.18)"/><path d="M128 102L138 102" stroke="#C2382B" stroke-width="3" fill="none" stroke-linecap="round" stroke-linejoin="round"/><path d="M125.7 107.7L132.7 114.7" stroke="#C2382B" stroke-width="3" fill="none" stroke-linecap="round" stroke-linejoin="round"/><path d="M120 110L120 120" stroke="#C2382B" stroke-width="3" fill="none" stroke-linecap="round" stroke-linejoin="round"/><path d="M114.3 107.7L107.3 114.7" stroke="#C2382B" stroke-width="3" fill="none" stroke-linecap="round" stroke-linejoin="round"/><path d="M112 102L102 102" stroke="#C2382B" stroke-width="3" fill="none" stroke-linecap="round" stroke-linejoin="round"/><path d="M114.3 96.3L107.3 89.3" stroke="#C2382B" stroke-width="3" fill="none" stroke-linecap="round" stroke-linejoin="round"/><path d="M120 94L120 84" stroke="#C2382B" stroke-width="3" fill="none" stroke-linecap="round" stroke-linejoin="round"/><path d="M125.7 96.3L132.7 89.3" stroke="#C2382B" stroke-width="3" fill="none" stroke-linecap="round" stroke-linejoin="round"/><circle cx="220" cy="120" r="6" fill="#C2382B"/><circle cx="220" cy="120" r="3" fill="#FCE5D3"/><rect x="240" y="28" width="60" height="44" rx="8" fill="#fff" stroke="#0E2238" stroke-width="3"/><rect x="265" y="36" width="10" height="28" fill="#C2382B"/><rect x="256" y="45" width="28" height="10" fill="#C2382B"/><rect x="260" y="20" width="20" height="8" rx="3" fill="#0E2238"/><rect x="236" y="78" width="68" height="34" rx="9" fill="#fff" stroke="#0E2238" stroke-opacity=".25" stroke-width="1"/><text x="270" y="92" text-anchor="middle" font-family="Arial,Helvetica,sans-serif" font-weight="700" font-size="12" fill="#0E2238">Secours</text><text x="270" y="107" text-anchor="middle" font-family="Tahoma,'Noto Sans Arabic','Noto Kufi Arabic','Geeza Pro',Arial,sans-serif" direction="rtl" font-weight="700" font-size="12" fill="#0E2238">إسعاف</text><rect x="8" y="8" width="84" height="22" rx="11" fill="#fff" stroke="#1F5FA8" stroke-width="2"/><rect x="16" y="13" width="8" height="12" rx="2" fill="#1F5FA8"/><text x="30" y="23.5" font-family="Arial,Helvetica,sans-serif" font-weight="700" font-size="12" fill="#1F5FA8">Vous</text><text x="84" y="23.5" text-anchor="start" font-family="Tahoma,'Noto Sans Arabic','Noto Kufi Arabic','Geeza Pro',Arial,sans-serif" direction="rtl" font-weight="700" font-size="12" fill="#1F5FA8">أنت</text></svg>