<svg xmlns="http://www.w3.org/2000/svg" viewBox="0 0 320 200"><rect width="320" height="200" rx="14" fill="#E9F0E6"/><path d="M66 74h28l-4 44a4 4 0 0 1 -4 4h-12a4 4 0 0 1 -4 -4z" fill="#FFF6DB" stroke="#0E2238" stroke-width="3"/><path d="M67.5 92h25l-2.6 26h-19.8z" fill="#F2B33D"/><rect x="70" y="70" width="20" height="6" rx="3" fill="#fff" stroke="#0E2238" stroke-width="2"/><rect x="140" y="64" width="120" height="76" rx="8" fill="#F7D9E3" stroke="#0E2238" stroke-width="2.5"/><rect x="148" y="74" width="31.2" height="47.1" rx="4" fill="#fff"/><circle cx="163.6" cy="90.7" r="6" fill="#8A96A3"/><rect x="190.4" y="76" width="57.6" height="6" rx="3" fill="#0E2238"/><rect x="190.4" y="89" width="48" height="5" rx="2.5" fill="#8A96A3"/><rect x="190.4" y="100" width="52.8" height="5" rx="2.5" fill="#8A96A3"/><circle cx="270" cy="50" r="10" fill="#fff" stroke="#0E2238" stroke-width="2"/><text x="270" y="54.2" text-anchor="middle" font-family="Arial,Helvetica,sans-serif" font-weight="700" font-size="13" fill="#0E2238">?</text></svg>