<svg xmlns="http://www.w3.org/2000/svg" viewBox="0 0 320 200"><rect width="320" height="200" rx="14" fill="#E9F0E6"/><rect x="110" y="0" width="100" height="200" fill="#6B7886"/><rect x="158" y="6" width="4" height="16" rx="2" fill="#fff"/><rect x="158" y="36" width="4" height="16" rx="2" fill="#fff"/><rect x="158" y="66" width="4" height="16" rx="2" fill="#fff"/><rect x="158" y="96" width="4" height="16" rx="2" fill="#fff"/><rect x="158" y="126" width="4" height="16" rx="2" fill="#fff"/><rect x="158" y="156" width="4" height="16" rx="2" fill="#fff"/><g transform="translate(185 70) rotate(0)"><rect x="-11" y="-19" width="22" height="38" rx="6" fill="#1F5FA8"/><rect x="-8" y="-11" width="16" height="8" rx="2" fill="#CFE0F5"/><rect x="-8" y="8" width="16" height="5" rx="2" fill="#CFE0F5"/></g><g transform="translate(185 150) rotate(0)"><rect x="-13" y="-24" width="26" height="48" rx="6" fill="#F4F6F8" stroke="#8A96A3" stroke-width="1.5"/><rect x="-9" y="-16" width="18" height="7" rx="2" fill="#CFE0F5"/><rect x="-2.5" y="0" width="5" height="16" fill="#C2382B"/><rect x="-8" y="5.5" width="16" height="5" fill="#C2382B"/><rect x="-8" y="-24" width="16" height="5" rx="2" fill="#7FB2F0" stroke="#8A96A3" stroke-width="1"/></g><path d="M198 126L204 126" stroke="#5B8FD1" stroke-width="3" fill="none" stroke-linecap="round" stroke-linejoin="round"/><path d="M191.5 137.3L194.5 142.5" stroke="#5B8FD1" stroke-width="3" fill="none" stroke-linecap="round" stroke-linejoin="round"/><path d="M178.5 137.3L175.5 142.5" stroke="#5B8FD1" stroke-width="3" fill="none" stroke-linecap="round" stroke-linejoin="round"/><path d="M172 126L166 126" stroke="#5B8FD1" stroke-width="3" fill="none" stroke-linecap="round" stroke-linejoin="round"/><path d="M178.5 114.7L175.5 109.5" stroke="#5B8FD1" stroke-width="3" fill="none" stroke-linecap="round" stroke-linejoin="round"/><path d="M191.5 114.7L194.5 109.5" stroke="#5B8FD1" stroke-width="3" fill="none" stroke-linecap="round" stroke-linejoin="round"/><path d="M212 140q8 10 0 20" stroke="#1F5FA8" stroke-width="3" fill="none" stroke-linecap="round" stroke-linejoin="round"/><path d="M221 137q8 13 0 26" stroke="#1F5FA8" stroke-width="3" fill="none" stroke-linecap="round" stroke-linejoin="round"/><path d="M230 134q8 16 0 32" stroke="#1F5FA8" stroke-width="3" fill="none" stroke-linecap="round" stroke-linejoin="round"/></svg>