<svg xmlns="http://www.w3.org/2000/svg" viewBox="0 0 320 200"><defs><g id="v-gris"><rect x="-14" y="-15" width="3" height="9" rx="1.5" fill="#0E2238"/><rect x="11" y="-15" width="3" height="9" rx="1.5" fill="#0E2238"/><rect x="-14" y="6" width="3" height="9" rx="1.5" fill="#0E2238"/><rect x="11" y="6" width="3" height="9" rx="1.5" fill="#0E2238"/><rect x="-11" y="-19" width="22" height="38" rx="6" fill="#8A96A3" stroke="#fff" stroke-width="1.5"/><rect x="-8" y="-12" width="16" height="9" rx="2" fill="#E3E7EB"/><rect x="-8" y="9" width="16" height="5" rx="2" fill="#E3E7EB"/><rect x="-7" y="-3" width="14" height="12" rx="2" fill="#8A96A3" stroke="#0E2238" stroke-opacity=".25" stroke-width="1"/><circle cx="-6.5" cy="-17.5" r="2" fill="#FFF6C2"/><circle cx="6.5" cy="-17.5" r="2" fill="#FFF6C2"/></g></defs><rect width="320" height="200" rx="14" fill="#E9F0E6"/><rect x="90" y="50" width="140" height="70" rx="12" fill="#0E2238"/><circle cx="130" cy="85" r="24" fill="#24364A"/><circle cx="190" cy="85" r="24" fill="#24364A"/><rect x="148" y="100" width="24" height="16" rx="4" fill="#3A4654"/><path d="M160 102l6 11h-12z" fill="#C2382B"/><rect x="97" y="126" width="126" height="34" rx="9" fill="#fff" stroke="#0E2238" stroke-opacity=".25" stroke-width="1"/><text x="160" y="140" text-anchor="middle" font-family="Arial,Helvetica,sans-serif" font-weight="700" font-size="12" fill="#0E2238">Tableau de bord</text><text x="160" y="155" text-anchor="middle" font-family="Tahoma,'Noto Sans Arabic','Noto Kufi Arabic','Geeza Pro',Arial,sans-serif" direction="rtl" font-weight="700" font-size="12" fill="#0E2238">لوحة القيادة</text><use href="#v-gris" transform="translate(70 160) rotate(90) scale(1.18)"/></svg>