<svg xmlns="http://www.w3.org/2000/svg" viewBox="0 0 320 200"><rect width="320" height="200" rx="14" fill="#E9F0E6"/><path d="M120 0h80v60h120v80H200v60h-80v-60H0V60h120z" fill="#6B7886"/><g transform="translate(222 150) scale(0.9)"><rect x="-2" y="26" width="4" height="30" rx="2" fill="#7C8794"/><rect x="-9" y="-26" width="18" height="52" rx="5" fill="#0E2238"/><circle cx="0" cy="-16" r="6" fill="#3A4654"/><circle cx="0" cy="0" r="6" fill="#F2B33D"/><circle cx="0" cy="16" r="6" fill="#3A4654"/></g><path d="M235 150L241 150" stroke="#F2B33D" stroke-width="3" fill="none" stroke-linecap="round" stroke-linejoin="round"/><path d="M228.5 161.3L231.5 166.5" stroke="#F2B33D" stroke-width="3" fill="none" stroke-linecap="round" stroke-linejoin="round"/><path d="M215.5 161.3L212.5 166.5" stroke="#F2B33D" stroke-width="3" fill="none" stroke-linecap="round" stroke-linejoin="round"/><path d="M209 150L203 150" stroke="#F2B33D" stroke-width="3" fill="none" stroke-linecap="round" stroke-linejoin="round"/><path d="M215.5 138.7L212.5 133.5" stroke="#F2B33D" stroke-width="3" fill="none" stroke-linecap="round" stroke-linejoin="round"/><path d="M228.5 138.7L231.5 133.5" stroke="#F2B33D" stroke-width="3" fill="none" stroke-linecap="round" stroke-linejoin="round"/><g transform="translate(180 172) rotate(0)"><rect x="-11" y="-19" width="22" height="38" rx="6" fill="#1F5FA8"/><rect x="-8" y="-11" width="16" height="8" rx="2" fill="#CFE0F5"/><rect x="-8" y="8" width="16" height="5" rx="2" fill="#CFE0F5"/></g><g transform="translate(244 80) rotate(-90)"><rect x="-11" y="-19" width="22" height="38" rx="6" fill="#E8731A"/><rect x="-8" y="-11" width="16" height="8" rx="2" fill="#FDE3CC"/><rect x="-8" y="8" width="16" height="5" rx="2" fill="#FDE3CC"/></g></svg>