<svg xmlns="http://www.w3.org/2000/svg" viewBox="0 0 320 200"><rect width="320" height="200" rx="14" fill="#E9F0E6"/><path d="M56 74h28l-4 44a4 4 0 0 1 -4 4h-12a4 4 0 0 1 -4 -4z" fill="#FFF6DB" stroke="#0E2238" stroke-width="3"/><path d="M57.5 92h25l-2.6 26h-19.8z" fill="#F2B33D"/><rect x="60" y="70" width="20" height="6" rx="3" fill="#fff" stroke="#0E2238" stroke-width="2"/><rect x="39" y="129" width="62" height="34" rx="9" fill="#fff" stroke="#0E2238" stroke-opacity=".25" stroke-width="1"/><text x="70" y="143" text-anchor="middle" font-family="Arial,Helvetica,sans-serif" font-weight="700" font-size="12" fill="#0E2238">Alcool</text><text x="70" y="158" text-anchor="middle" font-family="Tahoma,'Noto Sans Arabic','Noto Kufi Arabic','Geeza Pro',Arial,sans-serif" direction="rtl" font-weight="700" font-size="12" fill="#0E2238">الكحول</text><rect x="150" y="92" width="130" height="18" rx="9" fill="#E3E7EB"/><rect x="150" y="92" width="58.5" height="18" rx="9" fill="#2E8B57"/><circle cx="136" cy="101" r="11" fill="#0E2238"/><text x="136" y="106" text-anchor="middle" font-family="Arial,Helvetica,sans-serif" font-weight="700" font-size="13" fill="#fff">P</text><rect x="177" y="118" width="62" height="34" rx="9" fill="#fff" stroke="#0E2238" stroke-opacity=".25" stroke-width="1"/><text x="208" y="132" text-anchor="middle" font-family="Arial,Helvetica,sans-serif" font-weight="700" font-size="12" fill="#0E2238">Points</text><text x="208" y="147" text-anchor="middle" font-family="Tahoma,'Noto Sans Arabic','Noto Kufi Arabic','Geeza Pro',Arial,sans-serif" direction="rtl" font-weight="700" font-size="12" fill="#0E2238">النقاط</text></svg>