<svg xmlns="http://www.w3.org/2000/svg" viewBox="0 0 320 200"><rect width="320" height="200" rx="14" fill="#E9F0E6"/><rect x="0" y="40" width="320" height="80" fill="#6B7886"/><rect x="0" y="78" width="320" height="4" rx="2" fill="#fff"/><g transform="translate(80 100) rotate(90)"><rect x="-11" y="-19" width="22" height="38" rx="6" fill="#E8731A"/><rect x="-8" y="-11" width="16" height="8" rx="2" fill="#FDE3CC"/><rect x="-8" y="8" width="16" height="5" rx="2" fill="#FDE3CC"/></g><g transform="translate(100 60) rotate(70)"><rect x="-11" y="-19" width="22" height="38" rx="6" fill="#1F5FA8"/><rect x="-8" y="-11" width="16" height="8" rx="2" fill="#CFE0F5"/><rect x="-8" y="8" width="16" height="5" rx="2" fill="#CFE0F5"/></g><path d="M120 60L180 60L200 96" stroke="#1F5FA8" stroke-width="3" fill="none" stroke-linecap="round" stroke-linejoin="round" stroke-dasharray="7 7"/><path d="M192.5 93.2L200 96L201.5 88.1" stroke="#1F5FA8" stroke-width="3" fill="none" stroke-linecap="round" stroke-linejoin="round"/><g transform="translate(250 160) rotate(-35)"><rect x="-26" y="-10" width="34" height="20" rx="4" fill="#8B5A2B"/><rect x="-3" y="-3" width="46" height="6" rx="3" fill="#A0703F"/></g><rect x="220" y="182" width="50" height="8" rx="3" fill="#8B5A2B"/></svg>