<svg xmlns="http://www.w3.org/2000/svg" viewBox="0 0 320 200"><rect width="320" height="200" rx="14" fill="#E9F0E6"/><rect x="0" y="20" width="320" height="70" fill="#6B7886"/><rect x="0" y="90" width="320" height="16" fill="#9CC79A"/><rect x="0" y="106" width="320" height="70" fill="#6B7886"/><rect x="6" y="53" width="16" height="4" rx="2" fill="#fff"/><rect x="36" y="53" width="16" height="4" rx="2" fill="#fff"/><rect x="66" y="53" width="16" height="4" rx="2" fill="#fff"/><rect x="96" y="53" width="16" height="4" rx="2" fill="#fff"/><rect x="126" y="53" width="16" height="4" rx="2" fill="#fff"/><rect x="156" y="53" width="16" height="4" rx="2" fill="#fff"/><rect x="186" y="53" width="16" height="4" rx="2" fill="#fff"/><rect x="216" y="53" width="16" height="4" rx="2" fill="#fff"/><rect x="246" y="53" width="16" height="4" rx="2" fill="#fff"/><rect x="276" y="53" width="16" height="4" rx="2" fill="#fff"/><rect x="6" y="139" width="16" height="4" rx="2" fill="#fff"/><rect x="36" y="139" width="16" height="4" rx="2" fill="#fff"/><rect x="66" y="139" width="16" height="4" rx="2" fill="#fff"/><rect x="96" y="139" width="16" height="4" rx="2" fill="#fff"/><rect x="126" y="139" width="16" height="4" rx="2" fill="#fff"/><rect x="156" y="139" width="16" height="4" rx="2" fill="#fff"/><rect x="186" y="139" width="16" height="4" rx="2" fill="#fff"/><rect x="216" y="139" width="16" height="4" rx="2" fill="#fff"/><rect x="246" y="139" width="16" height="4" rx="2" fill="#fff"/><rect x="276" y="139" width="16" height="4" rx="2" fill="#fff"/><g transform="translate(80 40) rotate(90)"><rect x="-11" y="-19" width="22" height="38" rx="6" fill="#8A96A3"/><rect x="-8" y="-11" width="16" height="8" rx="2" fill="#E3E7EB"/><rect x="-8" y="8" width="16" height="5" rx="2" fill="#E3E7EB"/></g><g transform="translate(220 72) rotate(90)"><rect x="-11" y="-19" width="22" height="38" rx="6" fill="#8A96A3"/><rect x="-8" y="-11" width="16" height="8" rx="2" fill="#E3E7EB"/><rect x="-8" y="8" width="16" height="5" rx="2" fill="#E3E7EB"/></g><g transform="translate(160 123) rotate(-90)"><rect x="-11" y="-19" width="22" height="38" rx="6" fill="#8A96A3"/><rect x="-8" y="-11" width="16" height="8" rx="2" fill="#E3E7EB"/><rect x="-8" y="8" width="16" height="5" rx="2" fill="#E3E7EB"/></g><g transform="translate(170 72) rotate(-90)"><rect x="-11" y="-19" width="22" height="38" rx="6" fill="#1F5FA8"/><rect x="-8" y="-11" width="16" height="8" rx="2" fill="#CFE0F5"/><rect x="-8" y="8" width="16" height="5" rx="2" fill="#CFE0F5"/></g><path d="M150 72h-30" stroke="#C2382B" stroke-width="4" fill="none" stroke-linecap="round" stroke-linejoin="round"/><circle cx="260" cy="160" r="10" fill="#fff" stroke="#0E2238" stroke-width="2"/><text x="260" y="164.2" text-anchor="middle" font-family="Arial,Helvetica,sans-serif" font-weight="700" font-size="13" fill="#0E2238">?</text></svg>