<svg xmlns="http://www.w3.org/2000/svg" viewBox="0 0 320 200"><rect width="320" height="200" rx="14" fill="#E9F0E6"/><rect x="8" y="6" width="50" height="44" rx="3" fill="#D9CBB5"/><rect x="12" y="10" width="42" height="36" rx="2" fill="#BFAE93"/><rect x="70" y="6" width="40" height="44" rx="3" fill="#D9CBB5"/><rect x="74" y="10" width="32" height="36" rx="2" fill="#BFAE93"/><rect x="210" y="6" width="46" height="44" rx="3" fill="#D9CBB5"/><rect x="214" y="10" width="38" height="36" rx="2" fill="#BFAE93"/><rect x="266" y="6" width="46" height="44" rx="3" fill="#D9CBB5"/><rect x="270" y="10" width="38" height="36" rx="2" fill="#BFAE93"/><rect x="8" y="150" width="60" height="44" rx="3" fill="#D9CBB5"/><rect x="12" y="154" width="52" height="36" rx="2" fill="#BFAE93"/><rect x="222" y="150" width="90" height="44" rx="3" fill="#D9CBB5"/><rect x="226" y="154" width="82" height="36" rx="2" fill="#BFAE93"/><rect x="0" y="54" width="320" height="22" fill="#C9CED4"/><rect x="0" y="76" width="320" height="74" fill="#6B7886"/><g transform="translate(90 66) rotate(90)"><rect x="-11" y="-19" width="22" height="38" rx="6" fill="#8A96A3"/><rect x="-8" y="-11" width="16" height="8" rx="2" fill="#E3E7EB"/><rect x="-8" y="8" width="16" height="5" rx="2" fill="#E3E7EB"/></g><rect x="200" y="54" width="40" height="22" fill="#B7A88F"/><g transform="translate(220 96) rotate(90)"><rect x="-11" y="-19" width="22" height="38" rx="6" fill="#8A96A3"/><rect x="-8" y="-11" width="16" height="8" rx="2" fill="#E3E7EB"/><rect x="-8" y="8" width="16" height="5" rx="2" fill="#E3E7EB"/></g><g transform="translate(150 128) rotate(90)"><rect x="-11" y="-19" width="22" height="38" rx="6" fill="#E8731A"/><rect x="-8" y="-11" width="16" height="8" rx="2" fill="#FDE3CC"/><rect x="-8" y="8" width="16" height="5" rx="2" fill="#FDE3CC"/></g><circle cx="270" cy="140" r="10" fill="#fff" stroke="#0E2238" stroke-width="2"/><text x="270" y="144.2" text-anchor="middle" font-family="Arial,Helvetica,sans-serif" font-weight="700" font-size="13" fill="#0E2238">?</text></svg>