<svg xmlns="http://www.w3.org/2000/svg" viewBox="0 0 320 200"><rect width="320" height="200" rx="14" fill="#E9F0E6"/><rect x="0" y="30" width="320" height="130" fill="#6B7886"/><rect x="0" y="130" width="320" height="4" fill="#fff"/><rect x="0" y="134" width="320" height="26" fill="#7C8794"/><rect x="6" y="78" width="16" height="4" rx="2" fill="#fff"/><rect x="36" y="78" width="16" height="4" rx="2" fill="#fff"/><rect x="66" y="78" width="16" height="4" rx="2" fill="#fff"/><rect x="96" y="78" width="16" height="4" rx="2" fill="#fff"/><rect x="126" y="78" width="16" height="4" rx="2" fill="#fff"/><rect x="156" y="78" width="16" height="4" rx="2" fill="#fff"/><rect x="186" y="78" width="16" height="4" rx="2" fill="#fff"/><rect x="216" y="78" width="16" height="4" rx="2" fill="#fff"/><rect x="246" y="78" width="16" height="4" rx="2" fill="#fff"/><rect x="276" y="78" width="16" height="4" rx="2" fill="#fff"/><g transform="translate(260 147) rotate(90)"><rect x="-11" y="-19" width="22" height="38" rx="6" fill="#1F5FA8"/><rect x="-8" y="-11" width="16" height="8" rx="2" fill="#CFE0F5"/><rect x="-8" y="8" width="16" height="5" rx="2" fill="#CFE0F5"/></g><g transform="translate(80 147) scale(0.8)"><path d="M0 -16L15 11H-15z" fill="none" stroke="#C2382B" stroke-width="5" stroke-linejoin="round"/><rect x="-3" y="11" width="6" height="6" fill="#0E2238"/></g><path d="M92 178L246 178" stroke="#0E2238" stroke-width="2.5" fill="none" stroke-linecap="round" stroke-linejoin="round" stroke-dasharray="5 4"/><path d="M240.2 182L246 178L240.2 174" stroke="#0E2238" stroke-width="2.5" fill="none" stroke-linecap="round" stroke-linejoin="round"/><path d="M97.8 174L92 178L97.8 182" stroke="#0E2238" stroke-width="2.5" fill="none" stroke-linecap="round" stroke-linejoin="round"/><circle cx="169" cy="178" r="10" fill="#fff" stroke="#0E2238" stroke-width="2"/><text x="169" y="182.2" text-anchor="middle" font-family="Arial,Helvetica,sans-serif" font-weight="700" font-size="13" fill="#0E2238">?</text></svg>