<svg xmlns="http://www.w3.org/2000/svg" viewBox="0 0 320 200"><rect width="320" height="200" rx="14" fill="#E9F0E6"/><circle cx="30" cy="28" r="12" fill="#9CC79A"/><circle cx="26.4" cy="24.4" r="5.4" fill="#B8DDB5"/><circle cx="70" cy="22" r="10" fill="#9CC79A"/><circle cx="67" cy="19" r="4.5" fill="#B8DDB5"/><circle cx="250" cy="30" r="14" fill="#9CC79A"/><circle cx="245.8" cy="25.8" r="6.3" fill="#B8DDB5"/><circle cx="292" cy="22" r="9" fill="#9CC79A"/><circle cx="289.3" cy="19.3" r="4.1" fill="#B8DDB5"/><circle cx="40" cy="172" r="13" fill="#9CC79A"/><circle cx="36.1" cy="168.1" r="5.9" fill="#B8DDB5"/><circle cx="280" cy="174" r="12" fill="#9CC79A"/><circle cx="276.4" cy="170.4" r="5.4" fill="#B8DDB5"/><path d="M0 70H180Q260 70 260 150V200H180V150Q180 140 170 140H0z" fill="#6B7886"/><rect x="196" y="0" width="120" height="60" rx="3" fill="#D9CBB5"/><rect x="200" y="4" width="112" height="52" rx="2" fill="#BFAE93"/><g transform="translate(220 160) rotate(0)"><rect x="-11" y="-19" width="22" height="38" rx="6" fill="#8A96A3"/><rect x="-8" y="-11" width="16" height="8" rx="2" fill="#E3E7EB"/><rect x="-8" y="8" width="16" height="5" rx="2" fill="#E3E7EB"/></g><g transform="translate(60 105) rotate(90)"><rect x="-11" y="-19" width="22" height="38" rx="6" fill="#1F5FA8"/><rect x="-8" y="-11" width="16" height="8" rx="2" fill="#CFE0F5"/><rect x="-8" y="8" width="16" height="5" rx="2" fill="#CFE0F5"/></g><circle cx="150" cy="40" r="10" fill="#fff" stroke="#0E2238" stroke-width="2"/><text x="150" y="44.2" text-anchor="middle" font-family="Arial,Helvetica,sans-serif" font-weight="700" font-size="13" fill="#0E2238">?</text></svg>